<?xml version="1.0"?>
<svg xmlns="http://www.w3.org/2000/svg" display="none">

    <!--  CHEVRONS [ START ]  -->
    <symbol viewBox="0 0 24 24" id="chevron-up">
        <path d="M7.41,15.41L12,10.83L16.59,15.41L18,14L12,8L6,14L7.41,15.41Z"/>
    </symbol>

    <symbol viewBox="0 0 24 24" id="chevron-right">
        <path d="M8.59,16.58L13.17,12L8.59,7.41L10,6L16,12L10,18L8.59,16.58Z"/>
    </symbol>

    <symbol viewBox="0 0 24 24" id="chevron-down">
        <path d="M7.41,8.58L12,13.17L16.59,8.58L18,10L12,16L6,10L7.41,8.58Z"/>
        <path d="M7.41,8.58L12,13.17L16.59,8.58L18,10L12,16L6,10L7.41,8.58Z"/>
    </symbol>

    <symbol viewBox="0 0 24 24" id="chevron-left">
        <path d="M15.41,16.58L10.83,12L15.41,7.41L14,6L8,12L14,18L15.41,16.58Z"/>
    </symbol>
    <!--  CHEVRONS [ END ]  -->

    <symbol viewBox="0 0 24 24" id="loading">
        <path d="M18.364 5.63604L16.9497 7.05025C15.683 5.7835 13.933 5 12 5C8.13401 5 5 8.13401 5 12C5 15.866 8.13401 19 12 19C15.866 19 19 15.866 19 12H21C21 16.9706 16.9706 21 12 21C7.02944 21 3 16.9706 3 12C3 7.02944 7.02944 3 12 3C14.4853 3 16.7353 4.00736 18.364 5.63604Z"/>
    </symbol>

    <symbol viewBox="0 0 24 24" id="currency-outline">
        <path d="M17.0047 16.0028H19.0047V4.00281H9.00468V6.00281H17.0047V16.0028ZM17.0047 18.0028V21.0019C17.0047 21.5547 16.5547 22.0028 15.9978 22.0028H4.01154C3.45548 22.0028 3.00488 21.5582 3.00488 21.0019L3.00748 7.00368C3.00759 6.45091 3.45752 6.00281 4.0143 6.00281H7.00468V3.00281C7.00468 2.45052 7.4524 2.00281 8.00468 2.00281H20.0047C20.557 2.00281 21.0047 2.45052 21.0047 3.00281V17.0028C21.0047 17.5551 20.557 18.0028 20.0047 18.0028H17.0047ZM5.0073 8.00281L5.00507 20.0028H15.0047V8.00281H5.0073ZM7.00468 16.0028H11.5047C11.7808 16.0028 12.0047 15.7789 12.0047 15.5028C12.0047 15.2267 11.7808 15.0028 11.5047 15.0028H8.50468C7.12397 15.0028 6.00468 13.8835 6.00468 12.5028C6.00468 11.1221 7.12397 10.0028 8.50468 10.0028H9.00468V9.00281H11.0047V10.0028H13.0047V12.0028H8.50468C8.22854 12.0028 8.00468 12.2267 8.00468 12.5028C8.00468 12.7789 8.22854 13.0028 8.50468 13.0028H11.5047C12.8854 13.0028 14.0047 14.1221 14.0047 15.5028C14.0047 16.8835 12.8854 18.0028 11.5047 18.0028H11.0047V19.0028H9.00468V18.0028H7.00468V16.0028Z"/>
    </symbol>

    <symbol viewBox="0 0 24 24" id="subtract">
        <path d="M5 11V13H19V11H5Z"/>
    </symbol>

</svg>
